<svg xmlns="http://www.w3.org/2000/svg" viewBox="0 0 512 512">
  <rect width="512" height="512" fill="#0F1413"/>
  <path d="M78.38195193722414 317.5203531142717 135.50799411476214 194.4796468857283H139.0234428641491L196.14948504168711 317.5203531142717H192.1067189798921L136.38685630210887 197.29200588523787H138.14458067680238L82.42471799901914 317.5203531142717ZM97.18960274644434 280.43236880823935 98.94732712113782 277.0926924963217H175.40833742030406L177.16606179499755 280.43236880823935Z" fill="#FAFAFA"/><path d="M237.1044629720451 317.5203531142717V197.81932319764593H191.4036292300147V194.4796468857283H286.32074546346246V197.81932319764593H240.61991172143206V317.5203531142717Z" fill="#FAFAFA"/><path d="M353.46581657675324 318.04767042667976Q339.9313388916135 318.04767042667976 328.41824423737125 313.38970083374204Q316.90514958312895 308.7317312408043 308.3801863658656 300.29465424227567Q299.8552231486022 291.85757724374696 295.10936733692984 280.6081412457087Q290.3635115252574 269.3587052476704 290.3635115252574 256.0Q290.3635115252574 242.64129475232957 295.10936733692984 231.39185875429132Q299.8552231486022 220.14242275625307 308.3801863658656 211.7053457577244Q316.90514958312895 203.26826875919568 328.41824423737125 198.61029916625796Q339.9313388916135 193.95232957332027 353.46581657675324 193.95232957332027Q365.59411476213825 193.95232957332027 376.4920058852378 197.81932319764593Q387.38989700833736 201.68631682197156 395.299656694458 209.5960765080922L393.19038744482583 212.05689063266308Q384.7533104462972 203.97135850907307 374.73428151054435 200.63168219715547Q364.7152525747915 197.29200588523787 353.46581657675324 197.29200588523787Q340.81020107896023 197.29200588523787 329.9123099558607 201.77420304070625Q319.0144188327611 206.2564001961746 310.92888670917114 214.25404610102993Q302.84335458558115 222.25169200588525 298.36115743011277 232.8859244727808Q293.8789602746444 243.52015693967633 293.8789602746444 256.0Q293.8789602746444 268.4798430603237 298.36115743011277 279.11407552721926Q302.84335458558115 289.7483079941148 310.92888670917114 297.74595389897013Q319.0144188327611 305.7435998038254 329.9123099558607 310.2257969592938Q340.81020107896023 314.70799411476213 353.46581657675324 314.70799411476213Q364.7152525747915 314.70799411476213 374.73428151054435 311.28043158410986Q384.7533104462972 307.8528690534576 393.19038744482583 299.7673369298676L395.299656694458 302.22815105443846Q387.38989700833736 310.1379107405591 376.4920058852378 314.09279058361943Q365.59411476213825 318.04767042667976 353.46581657675324 318.04767042667976Z" fill="#FAFAFA"/>
  <rect x="415.5" y="297.8" width="19.7" height="19.7" fill="#40916C"/>
</svg>